# xmcd
#
# Track frame offsets:
#	150
#	12648
#	26985
#	39880
#	49403
#	62995
#	72603
#	91830
#	100320
#	116965
#	130240
#	138955
#	149353
#	161203
#
# Disc length: 2426 seconds
#
# Revision: 0
# Processed by: cddbd v1.5.2PL0 Copyright (c) Steve Scherf et al.
# Submitted via: EasyCDDAExtractor 10.2.0.1
#
DISCID=d909780e
DTITLE=Various Artist - Calvary Compilations Vol.2
DYEAR=1900
DGENRE=
TTITLE0=Johnny Minick Family - That's No Hill For A Climber
TTITLE1=Freddie Hart - The Scars On Jesus Christ
TTITLE2=The Singing Echoes - A Good Time To Have A Revival
TTITLE3=Crandall Brothers - Keep "em Burning On
TTITLE4=The Matt Thomas Family - When I Come Up Off My Knees
TTITLE5=The Medlocks - He's Coming Back
TTITLE6=Eddy and Valerie Bell - His Hand Reached Farther Down
TTITLE7=Bo Hinson and Purpose - Heaven On Earth
TTITLE8=Ronny Hinson - Symphony Of Praise
TTITLE9=Kenny Hinson - By The Time They Find Me Missing
TTITLE10=Kenny Hinson - Campmeeting Days
TTITLE11=Ronny Hinson - Hallelujah Meeting
TTITLE12=Kenny Hinson - I Already Know How The Story Ends
TTITLE13=Ronny Hinson - That I Could Still Go Free
EXTD=
EXTT0=
EXTT1=
EXTT2=
EXTT3=
EXTT4=
EXTT5=
EXTT6=
EXTT7=
EXTT8=
EXTT9=
EXTT10=
EXTT11=
EXTT12=
EXTT13=
PLAYORDER=
